<svg width="223" height="40" viewBox="0 0 223 40" fill="none" xmlns="http://www.w3.org/2000/svg">
<g filter="url(#filter0_ii_124_11733)">
<rect width="223" height="40" rx="16" fill="white"/>
<path d="M31.6827 22.578C31.1927 22.802 30.7027 22.9 30.1847 22.9C28.5327 22.9 27.4127 21.752 27.4127 20.1C27.4127 18.406 28.5327 17.3 30.2127 17.3C31.1507 17.3 31.9207 17.65 32.5927 18.392L34.3567 16.796C33.3907 15.634 31.9067 15.004 30.0727 15.004C26.8947 15.004 24.6127 17.118 24.6127 20.1C24.6127 23.082 26.8947 25.196 30.0167 25.196C31.4447 25.196 32.9987 24.762 34.1327 23.95V19.89H31.6827V22.578ZM43.5202 21.22C43.5202 18.714 41.7002 17.286 39.4602 17.286C37.0662 17.286 35.2882 18.91 35.2882 21.192C35.2882 23.46 37.0382 25.126 39.7402 25.126C41.1822 25.126 42.2462 24.706 42.9742 23.894L41.5742 22.438C41.0562 22.886 40.5662 23.096 39.8242 23.096C38.8442 23.096 38.1862 22.648 37.9622 21.878H43.4782C43.4922 21.668 43.5202 21.416 43.5202 21.22ZM39.4742 19.176C40.3002 19.176 40.8882 19.68 41.0282 20.478H37.9202C38.0742 19.68 38.6482 19.176 39.4742 19.176ZM47.5046 25.126C49.9686 25.126 51.2566 24.034 51.2566 22.634C51.2566 19.624 46.7906 20.758 46.7906 19.708C46.7906 19.428 47.1126 19.176 48.0086 19.176C48.6806 19.176 49.4366 19.316 50.1926 19.736L50.9906 17.93C50.2346 17.51 49.0586 17.286 47.9946 17.286C45.6146 17.286 44.2986 18.378 44.2986 19.806C44.2986 22.844 48.7786 21.682 48.7786 22.704C48.7786 23.026 48.4846 23.222 47.5886 23.222C46.6646 23.222 45.6426 22.956 44.9426 22.522L44.1446 24.342C44.8866 24.804 46.2166 25.126 47.5046 25.126ZM56.2808 25.126C58.0028 25.126 59.3188 24.356 59.8368 23.04L57.7788 21.99C57.4148 22.704 56.8828 23.012 56.2668 23.012C55.3428 23.012 54.6148 22.368 54.6148 21.192C54.6148 20.044 55.3428 19.4 56.2668 19.4C56.8828 19.4 57.4148 19.708 57.7788 20.422L59.8368 19.372C59.3188 18.056 58.0028 17.286 56.2808 17.286C53.7328 17.286 51.9268 18.91 51.9268 21.192C51.9268 23.502 53.7328 25.126 56.2808 25.126ZM65.753 17.286C64.857 17.286 64.059 17.566 63.471 18.112V14.612H60.811V25H63.471V21.332C63.471 20.072 64.129 19.54 64.983 19.54C65.753 19.54 66.229 20.002 66.229 21.094V25H68.889V20.66C68.889 18.308 67.531 17.286 65.753 17.286ZM72.6031 16.516C73.2331 16.516 73.7091 16.082 73.7091 15.424C73.7091 14.766 73.2331 14.318 72.6031 14.318C71.9731 14.318 71.4971 14.766 71.4971 15.424C71.4971 16.082 71.9731 16.516 72.6031 16.516ZM75.5711 16.516C76.2011 16.516 76.6771 16.082 76.6771 15.424C76.6771 14.766 76.2011 14.318 75.5711 14.318C74.9411 14.318 74.4651 14.766 74.4651 15.424C74.4651 16.082 74.9411 16.516 75.5711 16.516ZM73.7931 17.286C72.6031 17.286 71.3151 17.594 70.4471 18.168L71.3431 19.974C71.8611 19.568 72.6731 19.316 73.4011 19.316C74.4511 19.316 74.9691 19.75 75.0111 20.52H73.4991C71.1471 20.52 70.1251 21.388 70.1251 22.788C70.1251 24.104 71.1331 25.126 72.9531 25.126C74.0591 25.126 74.8151 24.748 75.1931 24.02V25H77.6711V20.786C77.6711 18.378 76.2571 17.286 73.7931 17.286ZM73.6951 23.446C73.0651 23.446 72.7011 23.124 72.7011 22.676C72.7011 22.214 73.0091 21.906 73.8631 21.906H75.0111V22.564C74.8011 23.166 74.2831 23.446 73.6951 23.446ZM82.2481 17.524C82.2481 16.852 82.5701 16.53 83.1301 16.53C83.4101 16.53 83.7041 16.628 83.9281 16.754L84.5861 14.878C84.1521 14.612 83.4661 14.486 82.8221 14.486C80.7921 14.486 79.6581 15.676 79.6581 17.496V17.692H78.5521V19.68H79.6581V25H82.3181V19.68H84.0541V17.692H82.2481V17.524ZM89.6156 22.83C89.3916 22.984 89.0976 23.068 88.8036 23.068C88.3276 23.068 88.0056 22.76 88.0056 22.2V19.68H89.7416V17.692H88.0056V15.718H85.3456V17.692H84.2396V19.68H85.3456V22.228C85.3456 24.174 86.4796 25.126 88.4256 25.126C89.1256 25.126 89.8116 24.986 90.2736 24.692L89.6156 22.83ZM94.0573 25.126C96.5213 25.126 97.8093 24.034 97.8093 22.634C97.8093 19.624 93.3433 20.758 93.3433 19.708C93.3433 19.428 93.6653 19.176 94.5613 19.176C95.2333 19.176 95.9893 19.316 96.7453 19.736L97.5433 17.93C96.7873 17.51 95.6113 17.286 94.5473 17.286C92.1673 17.286 90.8513 18.378 90.8513 19.806C90.8513 22.844 95.3313 21.682 95.3313 22.704C95.3313 23.026 95.0373 23.222 94.1413 23.222C93.2173 23.222 92.1953 22.956 91.4953 22.522L90.6973 24.342C91.4393 24.804 92.7693 25.126 94.0573 25.126ZM103.73 17.286C102.848 17.286 102.134 17.538 101.616 18.07V14.612H98.9556V25H101.49V24.244C101.994 24.846 102.736 25.126 103.73 25.126C105.788 25.126 107.454 23.614 107.454 21.192C107.454 18.784 105.788 17.286 103.73 17.286ZM103.17 23.012C102.274 23.012 101.574 22.354 101.574 21.192C101.574 20.044 102.274 19.4 103.17 19.4C104.066 19.4 104.766 20.044 104.766 21.192C104.766 22.354 104.066 23.012 103.17 23.012ZM116.446 21.22C116.446 18.714 114.626 17.286 112.386 17.286C109.992 17.286 108.214 18.91 108.214 21.192C108.214 23.46 109.964 25.126 112.666 25.126C114.108 25.126 115.172 24.706 115.9 23.894L114.5 22.438C113.982 22.886 113.492 23.096 112.75 23.096C111.77 23.096 111.112 22.648 110.888 21.878H116.404C116.418 21.668 116.446 21.416 116.446 21.22ZM112.4 19.176C113.226 19.176 113.814 19.68 113.954 20.478H110.846C111 19.68 111.574 19.176 112.4 19.176ZM123.076 14.612V18.07C122.572 17.538 121.858 17.286 120.976 17.286C118.904 17.286 117.238 18.784 117.238 21.192C117.238 23.614 118.904 25.126 120.976 25.126C121.956 25.126 122.698 24.846 123.202 24.244V25H125.736V14.612H123.076ZM121.536 23.012C120.626 23.012 119.94 22.354 119.94 21.192C119.94 20.044 120.626 19.4 121.536 19.4C122.432 19.4 123.118 20.044 123.118 21.192C123.118 22.354 122.432 23.012 121.536 23.012ZM128.778 16.572C129.758 16.572 130.402 15.956 130.402 15.116C130.402 14.318 129.758 13.744 128.778 13.744C127.798 13.744 127.154 14.36 127.154 15.158C127.154 15.956 127.798 16.572 128.778 16.572ZM127.448 25H130.108V17.412H127.448V25ZM136.778 17.286C135.826 17.286 134.972 17.608 134.37 18.238V17.412H131.836V25H134.496V21.332C134.496 20.072 135.154 19.54 136.008 19.54C136.778 19.54 137.254 20.002 137.254 21.094V25H139.914V20.66C139.914 18.308 138.556 17.286 136.778 17.286ZM147.322 17.412V18.336C146.804 17.622 145.992 17.286 144.942 17.286C142.926 17.286 141.218 18.714 141.218 20.94C141.218 23.18 142.926 24.608 144.942 24.608C145.908 24.608 146.678 24.314 147.196 23.712V23.964C147.196 25.154 146.594 25.798 145.166 25.798C144.27 25.798 143.234 25.49 142.604 24.986L141.638 26.848C142.562 27.506 143.948 27.842 145.404 27.842C148.232 27.842 149.856 26.484 149.856 23.614V17.412H147.322ZM145.572 22.494C144.62 22.494 143.906 21.864 143.906 20.94C143.906 20.016 144.62 19.4 145.572 19.4C146.524 19.4 147.224 20.016 147.224 20.94C147.224 21.864 146.524 22.494 145.572 22.494ZM156.885 17.412V21.066C156.885 22.34 156.241 22.858 155.457 22.858C154.659 22.858 154.197 22.396 154.197 21.22V17.412H151.537V21.654C151.537 24.062 152.895 25.126 154.757 25.126C155.625 25.126 156.437 24.818 157.011 24.188V25H159.545V17.412H156.885ZM166.2 17.286C165.248 17.286 164.394 17.608 163.792 18.238V17.412H161.258V25H163.918V21.332C163.918 20.072 164.576 19.54 165.43 19.54C166.2 19.54 166.676 20.002 166.676 21.094V25H169.336V20.66C169.336 18.308 167.978 17.286 166.2 17.286ZM176.744 17.412V18.336C176.226 17.622 175.414 17.286 174.364 17.286C172.348 17.286 170.64 18.714 170.64 20.94C170.64 23.18 172.348 24.608 174.364 24.608C175.33 24.608 176.1 24.314 176.618 23.712V23.964C176.618 25.154 176.016 25.798 174.588 25.798C173.692 25.798 172.656 25.49 172.026 24.986L171.06 26.848C171.984 27.506 173.37 27.842 174.826 27.842C177.654 27.842 179.278 26.484 179.278 23.614V17.412H176.744ZM174.994 22.494C174.042 22.494 173.328 21.864 173.328 20.94C173.328 20.016 174.042 19.4 174.994 19.4C175.946 19.4 176.646 20.016 176.646 20.94C176.646 21.864 175.946 22.494 174.994 22.494ZM188.743 21.22C188.743 18.714 186.923 17.286 184.683 17.286C182.289 17.286 180.511 18.91 180.511 21.192C180.511 23.46 182.261 25.126 184.963 25.126C186.405 25.126 187.469 24.706 188.197 23.894L186.797 22.438C186.279 22.886 185.789 23.096 185.047 23.096C184.067 23.096 183.409 22.648 183.185 21.878H188.701C188.715 21.668 188.743 21.416 188.743 21.22ZM184.697 19.176C185.523 19.176 186.111 19.68 186.251 20.478H183.143C183.297 19.68 183.871 19.176 184.697 19.176ZM194.911 17.286C193.959 17.286 193.105 17.608 192.503 18.238V17.412H189.969V25H192.629V21.332C192.629 20.072 193.287 19.54 194.141 19.54C194.911 19.54 195.387 20.002 195.387 21.094V25H198.047V20.66C198.047 18.308 196.689 17.286 194.911 17.286Z" fill="black"/>
</g>
<defs>
<filter id="filter0_ii_124_11733" x="0" y="-4" width="223" height="44" filterUnits="userSpaceOnUse" color-interpolation-filters="sRGB">
<feFlood flood-opacity="0" result="BackgroundImageFix"/>
<feBlend mode="normal" in="SourceGraphic" in2="BackgroundImageFix" result="shape"/>
<feColorMatrix in="SourceAlpha" type="matrix" values="0 0 0 0 0 0 0 0 0 0 0 0 0 0 0 0 0 0 127 0" result="hardAlpha"/>
<feOffset dy="-4"/>
<feGaussianBlur stdDeviation="4"/>
<feComposite in2="hardAlpha" operator="arithmetic" k2="-1" k3="1"/>
<feColorMatrix type="matrix" values="0 0 0 0 0 0 0 0 0 0 0 0 0 0 0 0 0 0 0.1 0"/>
<feBlend mode="normal" in2="shape" result="effect1_innerShadow_124_11733"/>
<feColorMatrix in="SourceAlpha" type="matrix" values="0 0 0 0 0 0 0 0 0 0 0 0 0 0 0 0 0 0 127 0" result="hardAlpha"/>
<feOffset/>
<feGaussianBlur stdDeviation="4"/>
<feComposite in2="hardAlpha" operator="arithmetic" k2="-1" k3="1"/>
<feColorMatrix type="matrix" values="0 0 0 0 0 0 0 0 0 0 0 0 0 0 0 0 0 0 0.1 0"/>
<feBlend mode="normal" in2="effect1_innerShadow_124_11733" result="effect2_innerShadow_124_11733"/>
</filter>
</defs>
</svg>
