<svg width="335" height="81" viewBox="0 0 335 81" fill="none" xmlns="http://www.w3.org/2000/svg">
<g filter="url(#filter0_i_95_1908)">
<rect width="334.528" height="80.02" rx="22.3019" fill="url(#paint0_linear_95_1908)"/>
</g>
<path d="M33.5803 50.7889C38.8138 50.7889 41.609 48.1126 41.609 42.7007V29.5575H28.5847V34.1071H35.7808V43.0575C35.7808 45.0498 34.8589 46.0906 33.164 46.0906C31.8259 46.0906 30.6662 45.3472 29.566 43.9199L26.3545 47.7261C27.9602 49.7184 30.5473 50.7889 33.5803 50.7889ZM51.4111 45.823V42.0168H60.659V37.6159H51.4111V34.1071H61.9079V29.5575H45.5829V50.3726H62.2944V45.823H51.4111ZM69.9923 50.3726H75.88V34.226H82.2435V29.5575H63.5991V34.226H69.9923V50.3726ZM91.0978 45.704L101.595 33.2447V29.5575H83.6638V34.226H93.8929L83.3962 46.6853V50.3726H102.041V45.704H91.0978ZM109.05 50.3726H114.937V34.226H121.301V29.5575H102.656V34.226H109.05V50.3726ZM148.146 39.519C149.93 38.5972 150.941 36.9914 150.941 34.9991C150.941 31.7877 148.265 29.5575 142.793 29.5575H132.148V50.3726H143.388C148.978 50.3726 151.952 48.2613 151.952 44.6633C151.952 42.1357 150.495 40.3516 148.146 39.519ZM142.02 33.8097C143.983 33.8097 144.994 34.4936 144.994 35.802C144.994 37.1401 143.983 37.824 142.02 37.824H137.976V33.8097H142.02ZM142.912 46.1203H137.976V41.8978H142.912C144.934 41.8978 146.005 42.5818 146.005 44.0091C146.005 45.4364 144.934 46.1203 142.912 46.1203ZM160.83 45.823V42.0168H170.078V37.6159H160.83V34.1071H171.326V29.5575H155.001V50.3726H171.713V45.823H160.83ZM174.98 50.3726H180.868V29.5575H174.98V50.3726ZM189.487 50.3726H195.375V34.226H201.739V29.5575H183.094V34.226H189.487V50.3726ZM216.808 50.3726H223.112L218.621 43.8307C221.209 42.5818 222.695 40.3218 222.695 37.2591C222.695 32.5013 219.127 29.5575 213.447 29.5575H203.932V50.3726H209.82V44.8417H213.031L216.808 50.3726ZM216.748 37.2591C216.748 39.1622 215.529 40.2921 213.091 40.2921H209.82V34.1963H213.091C215.529 34.1963 216.748 35.3262 216.748 37.2591ZM231.772 45.823V42.0168H241.02V37.6159H231.772V34.1071H242.268V29.5575H225.943V50.3726H242.655V45.823H231.772ZM250.353 50.3726H256.241V34.226H262.604V29.5575H243.96V34.226H250.353V50.3726ZM270.626 45.823V42.0168H279.874V37.6159H270.626V34.1071H281.122V29.5575H264.798V50.3726H281.509V45.823H270.626ZM298.812 29.5575V40.6489L289.623 29.5575H284.776V50.3726H290.545V39.2811L299.733 50.3726H304.58V29.5575H298.812Z" fill="white"/>
<defs>
<filter id="filter0_i_95_1908" x="0" y="-1.85849" width="336.386" height="81.8785" filterUnits="userSpaceOnUse" color-interpolation-filters="sRGB">
<feFlood flood-opacity="0" result="BackgroundImageFix"/>
<feBlend mode="normal" in="SourceGraphic" in2="BackgroundImageFix" result="shape"/>
<feColorMatrix in="SourceAlpha" type="matrix" values="0 0 0 0 0 0 0 0 0 0 0 0 0 0 0 0 0 0 127 0" result="hardAlpha"/>
<feOffset dx="1.85849" dy="-1.85849"/>
<feGaussianBlur stdDeviation="4.64622"/>
<feComposite in2="hardAlpha" operator="arithmetic" k2="-1" k3="1"/>
<feColorMatrix type="matrix" values="0 0 0 0 0 0 0 0 0 0 0 0 0 0 0 0 0 0 0.26 0"/>
<feBlend mode="normal" in2="shape" result="effect1_innerShadow_95_1908"/>
</filter>
<linearGradient id="paint0_linear_95_1908" x1="334.528" y1="40.01" x2="-2.2951e-06" y2="40.01" gradientUnits="userSpaceOnUse">
<stop stop-color="#FF2063"/>
<stop offset="1" stop-color="#FF0744"/>
</linearGradient>
</defs>
</svg>
