<svg width="282" height="120" viewBox="0 0 282 120" fill="none" xmlns="http://www.w3.org/2000/svg">
<g clip-path="url(#clip0_89_724)">
<path d="M181.593 48.6414C185.855 46.0138 187.986 49.2 193.531 48.4759C199.117 47.731 200.669 40.0759 200.669 40.0759C200.669 40.0759 197.214 43.2414 193.448 43.6138C190.469 43.9241 187.634 39.3103 182.71 39.2483C176.338 39.1655 174.331 41.8965 170.731 44.2345C169.903 44.7724 169.076 45.1034 168.393 45.3103C168.021 44.4828 167.648 43.6965 167.193 42.931L184.076 22.0345L160.345 34.8207C160.345 34.8207 160.241 34.7172 160.159 34.6759C162.931 29.9586 160.055 24.331 160.8 20.1931C161.69 15.2069 165.455 15.7241 168.579 11.0069C171.724 6.28966 167.09 0 167.09 0C167.09 0 167.152 4.71724 164.917 7.84138C163.159 10.3034 157.903 9.43448 154.593 13.1379C150.331 17.9172 151.014 21.2276 150.352 25.4897C150.103 27.1862 149.483 28.4069 148.841 29.1931C148.345 29.0897 147.828 28.9655 147.31 28.8828L141.993 1.01379L136.448 28.1586C134.793 22.6138 128.462 21.2897 125.71 17.9793C122.503 14.1103 125.297 11.5034 123.703 6.04138C122.09 0.6 114.372 0.206897 114.372 0.206897C114.372 0.206897 117.993 3.18621 118.945 6.91034C119.69 9.84828 115.655 13.3862 116.359 18.331C117.248 24.7241 120.248 26.2966 123.062 29.5241C124.903 31.6138 125.131 33.5586 125.069 34.6759C124.759 34.9034 124.49 35.1517 124.2 35.4207L98.2965 22.0966L115.986 43.2207C110.648 41.131 105.745 45.3931 101.462 45.5379C96.4551 45.7448 96.1655 41.8965 90.931 39.8069C85.7172 37.7172 80.6689 43.6345 80.6689 43.6345C80.6689 43.6345 85.2207 42.5586 88.6758 44.0897C91.4483 45.3103 91.6965 50.7103 95.9793 53.1931C101.503 56.4207 104.586 54.9931 108.828 54.7448C111.89 54.5379 113.607 55.8207 114.331 56.5241V57.3103L87.5586 69.5793L114.91 68.8138C109.965 71.6896 110.172 78.269 107.607 81.7448C104.628 85.8207 101.462 83.6483 96.5793 86.4621C91.6965 89.2966 93.0827 96.9931 93.0827 96.9931C93.0827 96.9931 95.0896 92.7517 98.462 90.931C101.11 89.5241 105.434 92.6897 110.048 90.8483C115.986 88.5103 116.793 85.2 119.297 81.6621C120.89 79.4069 122.669 78.7241 123.745 78.4965C123.972 78.7034 124.159 78.869 124.386 79.0552L117.352 107.317L133.8 85.1793C132.931 90.8896 138.124 94.8207 139.241 99.0414C140.524 103.924 136.903 105.103 136.034 110.731C135.165 116.359 141.972 120.041 141.972 120.041C141.972 120.041 139.945 115.8 140.669 112.014C141.228 109.014 146.359 107.566 147.807 102.786C149.669 96.6207 147.641 93.9103 146.462 89.7517C145.986 88.0552 146.048 86.6897 146.276 85.6759C147.248 85.5724 148.2 85.3655 149.131 85.1586L167.048 107.048L159.124 80.6069C159.124 80.6069 159.145 80.6069 159.145 80.5862C163.2 84.6 169.365 82.6759 173.317 84.269C177.972 86.1103 176.752 89.7517 180.745 93.7655C184.717 97.7793 191.69 94.3862 191.69 94.3862C191.69 94.3862 187.117 93.5379 184.51 90.7448C182.441 88.5103 184.324 83.4828 181.386 79.469C177.559 74.2965 174.207 74.3586 170.214 72.869C168.993 72.4138 168.083 71.8138 167.441 71.2345C167.897 70.4069 168.31 69.5586 168.662 68.7103L195.703 67.6552L171 58.2414V57.7241C175.883 56.4207 178.097 50.8138 181.552 48.6828L181.593 48.6414ZM171.145 46.9241C175.117 44.131 177.372 42.0828 180.662 41.6897C184.593 41.2345 186.497 42.6 186.497 42.6C186.497 42.6 179.793 41.0483 176.607 45.4552C174.931 47.7724 172.634 49.6759 170.193 50.7103C169.965 49.7586 169.717 48.8069 169.407 47.9172C169.945 47.6897 170.524 47.3586 171.145 46.9241V46.9241ZM164.255 38.731C163.779 38.131 163.241 37.5724 162.724 37.0345L176.421 28.531L164.255 38.731V38.731ZM152.586 26.9586C153.145 22.0966 153.124 19.0345 155.007 16.2621C157.262 12.9517 159.559 12.4345 159.559 12.4345C159.559 12.4345 153.972 16.469 155.11 21.8483C155.772 24.9931 155.565 28.4069 154.407 31.1172C153.538 30.7241 152.648 30.3517 151.717 30.0207C152.09 29.2345 152.421 28.2414 152.545 26.9379L152.586 26.9586ZM141.972 28.5103C141.145 28.531 140.317 28.5931 139.51 28.6759L141.972 11.1103V28.5103V28.5103ZM125.586 28.7172C122.255 25.1793 119.897 23.2345 119.007 20.0069C117.952 16.1379 119.007 14.0069 119.007 14.0069C119.007 14.0069 118.51 20.9379 123.331 23.4621C126.621 25.1793 129.393 28.0966 130.51 31.2414C129.579 31.6966 128.69 32.1724 127.821 32.7103C127.593 31.7172 127.076 30.3103 125.586 28.7172V28.7172ZM120.31 39.4966C119.772 40.1793 119.276 40.8828 118.8 41.6276L106.097 28.2828L120.31 39.5172V39.4966ZM109.738 52.2207C104.938 52.6965 101.979 53.4 98.9172 52.1172C95.2345 50.5862 94.262 48.4345 94.262 48.4345C94.262 48.4345 99.3724 53.1103 104.276 50.8138C107.793 49.1793 112.014 48.7862 115.2 50.0483C114.952 51.0621 114.745 52.0759 114.579 53.1517C113.71 52.5517 112.179 51.9724 109.759 52.2207H109.738ZM114.869 63.0207C115.034 63.8897 115.262 64.7379 115.51 65.5655L97.1793 67.2414L114.869 63.0207V63.0207ZM117.89 79.3655C115.241 83.4621 113.917 86.2345 111.041 87.8483C107.545 89.7931 105.29 89.2345 105.29 89.2345C105.29 89.2345 112.076 88.1379 113.379 82.7793C114.31 79.0138 116.586 75.4759 119.483 73.7379C120.062 74.5862 120.703 75.4138 121.386 76.1793C120.414 76.5724 119.09 77.4621 117.869 79.3655H117.89ZM128.917 82.3034C129.641 82.6965 130.365 83.069 131.131 83.4L121.531 98.1931L128.938 82.3034H128.917ZM143.731 89.3379C145.262 93.9724 146.586 96.7448 146.028 100.055C145.365 104.007 143.524 105.476 143.524 105.476C143.524 105.476 146.897 99.4138 143.586 95.069C141.517 92.3172 140.255 88.8828 140.317 85.7586C141.062 85.8207 141.828 85.8414 142.572 85.8414H143.214C143.193 86.7517 143.297 87.9103 143.752 89.3172L143.731 89.3379ZM162.207 98.1517L154.221 83.3379C154.945 83.0069 155.648 82.6552 156.352 82.2621L162.207 98.1517ZM168.228 74.731C172.841 76.2207 175.821 76.7586 178.117 79.1793C180.89 82.0552 180.972 84.4345 180.972 84.4345C180.972 84.4345 178.117 78.1034 172.717 78.2483C169.614 78.331 166.428 77.4828 164.069 75.9103C164.71 75.1655 165.29 74.4207 165.828 73.5931C166.469 74.0276 167.255 74.4207 168.248 74.7517L168.228 74.731ZM185.793 66.0207L170.214 63.5586C170.379 62.8138 170.524 62.0897 170.628 61.3241L185.793 66.0207V66.0207Z" fill="url(#paint0_linear_89_724)"/>
<path d="M14.2759 64.0551V65.8138C14.2759 66.7034 14.0897 67.531 13.7172 68.3379C13.3655 69.1034 12.8897 69.8069 12.2483 70.4276C11.6069 71.0482 10.8621 71.5241 9.9931 71.9172C9.16552 72.2689 8.25517 72.4344 7.26207 72.4344C6.43448 72.4344 5.56552 72.331 4.71724 72.1241C3.84828 71.9172 3.08276 71.5448 2.37931 71.0069C1.69655 70.4689 1.11724 69.7862 0.641379 68.9586C0.206897 68.1103 0 67.0345 0 65.7103V50.0276C0 49.0965 0.165517 48.2276 0.517241 47.4207C0.868965 46.6138 1.34483 45.931 1.98621 45.331C2.62759 44.7517 3.37241 44.2965 4.24138 43.9655C5.13103 43.6138 6.12414 43.4482 7.17931 43.4482C9.24827 43.4482 10.9448 44.0689 12.2483 45.331C12.8897 45.9517 13.3655 46.6758 13.7172 47.5241C14.0897 48.3517 14.2759 49.262 14.2759 50.2345V51.8276H9.86896V50.462C9.86896 49.6551 9.62069 48.9724 9.12414 48.3724C8.62758 47.7931 7.96552 47.4827 7.13793 47.4827C6.04138 47.4827 5.29655 47.7931 4.92414 48.4344C4.57241 49.0551 4.4069 49.8413 4.4069 50.7931V65.3586C4.4069 66.1862 4.5931 66.8689 4.96552 67.4482C5.37931 68.0069 6.08276 68.2965 7.07586 68.2965C7.36552 68.2965 7.67586 68.2551 7.98621 68.1724C8.33793 68.0689 8.64827 67.9034 8.93793 67.6965C9.2069 67.4896 9.41379 67.2 9.57931 66.8069C9.74483 66.4345 9.84827 65.9586 9.84827 65.4V63.9931H14.2552L14.2759 64.0551Z" fill="white"/>
<path d="M51.1655 62.2137L48.9931 51.8896H48.9103L46.7379 62.2137H51.1448H51.1655ZM40.262 72.1654L47.131 43.6758H50.8137L57.6827 72.1654H53.2758L51.9724 66.0413H45.9517L44.6482 72.1654H40.2413H40.262Z" fill="white"/>
<path d="M96.8069 51.8896H92.4V50.9793C92.4 50.0482 92.1518 49.2413 91.6552 48.5793C91.2 47.8758 90.3931 47.5448 89.2759 47.5448C88.6759 47.5448 88.1793 47.6482 87.8069 47.8551C87.4345 48.062 87.1242 48.331 86.8966 48.662C86.669 49.0138 86.5035 49.4069 86.4207 49.862C86.338 50.2965 86.2966 50.7517 86.2966 51.2276C86.2966 51.7862 86.2966 52.262 86.338 52.6344C86.4 53.0069 86.5035 53.3379 86.6897 53.6276C86.8759 53.9172 87.1035 54.1655 87.4345 54.3931C87.7862 54.6 88.2414 54.8276 88.8207 55.0344L92.1931 56.2758C93.1656 56.6276 93.9724 57.0413 94.5724 57.5172C95.1724 57.9724 95.6483 58.5103 96 59.1103C96.3104 59.7517 96.538 60.4758 96.6414 61.3034C96.7656 62.1103 96.8069 63.0207 96.8069 64.0551C96.8069 65.2551 96.6828 66.3724 96.4138 67.4069C96.1449 68.4207 95.7311 69.2896 95.1518 70.0138C94.5518 70.7586 93.7449 71.3379 92.7725 71.7724C91.8 72.2069 90.6 72.4138 89.1724 72.4138C88.0966 72.4138 87.1035 72.2482 86.1931 71.8965C85.2828 71.5448 84.4759 71.0689 83.8138 70.4482C83.1518 69.8275 82.6138 69.1241 82.2207 68.3379C81.8483 67.5103 81.6621 66.6207 81.6621 65.6482V64.1379H86.069V65.4207C86.069 66.1655 86.2966 66.8482 86.7518 67.4689C87.2483 68.0482 88.0552 68.3586 89.1724 68.3586C89.9173 68.3586 90.4966 68.2551 90.9104 68.0689C91.3449 67.862 91.6759 67.5724 91.9035 67.1793C92.1311 66.8069 92.2552 66.3724 92.2966 65.8551C92.3587 65.3172 92.3794 64.7379 92.3794 64.0965C92.3794 63.3517 92.3587 62.731 92.2966 62.2551C92.2345 61.7793 92.1311 61.3862 91.9449 61.0965C91.738 60.8069 91.469 60.5586 91.1173 60.3724C90.8069 60.1862 90.3725 59.9793 89.8138 59.7724L86.6483 58.5724C84.7449 57.8482 83.4621 56.8965 82.8 55.7379C82.1587 54.5379 81.8483 53.0482 81.8483 51.2482C81.8483 50.1724 82.0138 49.1586 82.3242 48.2069C82.6345 47.2551 83.1104 46.4276 83.7518 45.7241C84.3518 45.0207 85.1173 44.4827 86.0483 44.0896C87 43.6551 88.1173 43.4482 89.4207 43.4482C90.5173 43.4482 91.5104 43.6345 92.4 44.0069C93.3311 44.3793 94.1173 44.8758 94.7794 45.4965C96.1035 46.7793 96.7656 48.2482 96.7656 49.9034V51.9103L96.8069 51.8896Z" fill="white"/>
<path d="M122.917 72.1654V43.6758H127.324V72.1654H122.917Z" fill="white"/>
<path d="M148.945 72.1654V43.6758H153.186L159.848 60.8482H159.931V43.6758H164.338V72.1654H160.179L153.434 55.0344H153.352V72.1654H148.945V72.1654Z" fill="white"/>
<path d="M192.476 50.4C192.476 49.262 192.683 48.2482 193.117 47.3586C193.552 46.4689 194.131 45.7448 194.855 45.1655C195.538 44.6069 196.324 44.1724 197.193 43.8827C198.083 43.5931 198.972 43.4482 199.883 43.4482C200.793 43.4482 201.662 43.5931 202.531 43.8827C203.421 44.1724 204.228 44.6069 204.952 45.1655C205.634 45.7448 206.214 46.4896 206.648 47.3586C207.083 48.2276 207.29 49.262 207.29 50.4V65.4413C207.29 66.6413 207.062 67.6758 206.648 68.5241C206.214 69.3724 205.655 70.0758 204.952 70.6344C204.228 71.2138 203.421 71.6689 202.531 71.9586C201.662 72.2482 200.793 72.3931 199.883 72.3931C198.972 72.3931 198.103 72.2482 197.193 71.9586C196.324 71.6689 195.559 71.2344 194.855 70.6344C194.131 70.0758 193.552 69.3724 193.117 68.5241C192.683 67.6758 192.476 66.6413 192.476 65.4413V50.4ZM196.883 65.4413C196.883 66.4344 197.172 67.1586 197.752 67.6344C198.352 68.0896 199.055 68.3172 199.862 68.3172C200.669 68.3172 201.352 68.0896 201.931 67.6344C202.531 67.1586 202.841 66.4138 202.841 65.4413V50.4C202.841 49.4069 202.531 48.7034 201.931 48.2482C201.352 47.7724 200.669 47.5241 199.862 47.5241C199.055 47.5241 198.352 47.7724 197.752 48.2482C197.172 48.7034 196.883 49.4276 196.883 50.4V65.4413Z" fill="white"/>
<path d="M230.379 72.1654V43.6758H234.786V68.0896H243.517V72.1654H230.359H230.379Z" fill="white"/>
<path d="M270.91 72.1654V60.1241L264.848 43.6758H269.524L273.062 54.993H273.145L276.683 43.6758H281.359L275.297 60.1241V72.1654H270.89H270.91Z" fill="white"/>
</g>
<defs>
<linearGradient id="paint0_linear_89_724" x1="215.897" y1="64.6345" x2="65.6276" y2="53.2759" gradientUnits="userSpaceOnUse">
<stop stop-color="#A87A03"/>
<stop offset="0.48" stop-color="#E9C016"/>
<stop offset="0.99" stop-color="#F8E18E"/>
</linearGradient>
<clipPath id="clip0_89_724">
<rect width="281.379" height="120" fill="white"/>
</clipPath>
</defs>
</svg>
