<svg width="43" height="19" viewBox="0 0 43 19" fill="none" xmlns="http://www.w3.org/2000/svg">
<g clip-path="url(#clip0_169_2227)">
<path d="M7.6743 7.71824V8.53539H7.65931C7.32945 7.97313 6.78968 7.61328 6.12246 7.61328C4.72055 7.61328 4.09082 8.61786 4.09082 9.96728C4.09082 11.3167 4.86299 12.2388 6.09997 12.2388C6.7222 12.2388 7.23949 11.9989 7.61433 11.4666H7.62932V11.714C7.62932 12.5987 7.14952 13.0185 6.24991 13.0185C5.59768 13.0185 5.20035 12.8835 4.72055 12.6511L4.63809 13.8806C5.00543 14.0156 5.62017 14.1655 6.36236 14.1655C8.18408 14.1655 9.0837 13.5658 9.0837 11.714V7.71824H7.6743ZM6.57976 11.0393C6.10747 11.0393 5.69514 10.642 5.69514 9.94479C5.69514 9.32256 5.99501 8.81277 6.57976 8.81277C7.28447 8.81277 7.57684 9.37503 7.57684 9.87732C7.57684 10.5745 7.13453 11.0393 6.57976 11.0393Z" fill="black"/>
<path d="M11.7156 5.8291H10.1562V6.98361H11.7156V5.8291Z" fill="black"/>
<path d="M11.7156 7.71826H10.1562V12.2388H11.7156V7.71826Z" fill="black"/>
<path d="M14.3172 12.2463H12.7578V7.71824H14.1822V8.55038H14.1972C14.4671 7.97313 14.8569 7.61328 15.5316 7.61328C15.7116 7.61328 15.9065 7.64327 16.0564 7.66576L15.9814 8.97021C15.809 8.91773 15.6366 8.91773 15.4567 8.91773C14.7295 8.91773 14.3172 9.45 14.3172 10.3346V12.2463Z" fill="black"/>
<path d="M18.7479 7.61328C17.256 7.61328 16.124 8.48291 16.124 9.98228C16.124 11.4816 17.2485 12.3438 18.7479 12.3438C20.2473 12.3438 21.3718 11.4741 21.3718 9.98228C21.3718 8.49041 20.2323 7.61328 18.7479 7.61328ZM18.7479 11.2492C18.0282 11.2492 17.7358 10.6495 17.7358 9.98228C17.7358 9.31506 18.0282 8.70782 18.7479 8.70782C19.4676 8.70782 19.76 9.30756 19.76 9.98228C19.76 10.657 19.4601 11.2492 18.7479 11.2492Z" fill="black"/>
<path d="M26.2222 8.80485C25.6524 8.80485 25.2701 9.31464 25.2701 9.98935C25.2701 10.6641 25.7049 11.1439 26.2222 11.1439C26.8144 11.1439 27.1668 10.6566 27.1668 9.92938C27.1668 9.32963 26.8294 8.81235 26.2222 8.80485ZM31.8448 10.2068C31.32 10.2068 30.9002 10.3717 30.9002 10.8065C30.9002 11.1214 31.1776 11.3013 31.5449 11.2938C32.1297 11.2938 32.5045 10.7615 32.5045 10.2292C32.3021 10.2218 32.0847 10.2068 31.8448 10.2068ZM31.8448 10.2068C31.32 10.2068 30.9002 10.3717 30.9002 10.8065C30.9002 11.1214 31.1776 11.3013 31.5449 11.2938C32.1297 11.2938 32.5045 10.7615 32.5045 10.2292C32.3021 10.2218 32.0847 10.2068 31.8448 10.2068ZM26.2222 8.80485C25.6524 8.80485 25.2701 9.31464 25.2701 9.98935C25.2701 10.6641 25.7049 11.1439 26.2222 11.1439C26.8144 11.1439 27.1668 10.6566 27.1668 9.92938C27.1668 9.32963 26.8294 8.81235 26.2222 8.80485ZM39.0717 0.993164H3.79917C2.01493 0.993164 0.560547 2.43255 0.560547 4.2168V15.7544C0.560547 17.5387 2.01493 18.9855 3.79917 18.978H39.0717C40.8635 18.978 42.3103 17.5312 42.3103 15.7544V4.2168C42.3103 2.43255 40.856 0.993164 39.0717 0.993164ZM22.3913 17.6661H3.91163C2.7946 17.6661 1.88748 16.759 1.88748 15.6495V4.32925C1.88748 3.21222 2.7946 2.3126 3.91163 2.3126H22.3913V17.6661ZM26.717 12.3434C26.1697 12.3434 25.5849 12.1484 25.2851 11.6087H25.2701V14.0676H23.7032V7.72531H25.1426V8.54246H25.1576C25.4725 7.90523 26.1322 7.62036 26.8444 7.62036C28.0889 7.62036 28.7711 8.80485 28.7711 9.89939C28.7711 11.2338 28.0589 12.3434 26.717 12.3434ZM32.6245 12.2384C32.617 11.991 32.5945 11.7586 32.5945 11.5262H32.5795C32.2196 12.0885 31.7923 12.3434 31.1476 12.3434C30.2555 12.3434 29.4608 11.901 29.4608 10.919C29.4608 9.53954 30.9602 9.37461 31.7923 9.37461C32.0397 9.37461 32.3171 9.4046 32.512 9.43459C32.5045 8.81985 32.0397 8.65492 31.4849 8.65492C30.9752 8.65492 30.4804 8.74488 30.0455 8.99227L30.0156 7.93522C30.5703 7.71032 31.1551 7.61286 31.8148 7.61286C32.9693 7.61286 33.9664 8.10765 33.9664 9.48706V11.1738C33.9664 11.5262 33.9814 11.8786 34.0488 12.2384H32.6245ZM37.9322 11.931C37.4899 13.063 37.145 14.1726 35.7206 14.1726C35.3908 14.1726 35.0684 14.1351 34.7461 14.0676L34.8585 12.8831C35.0684 12.9431 35.2558 12.9731 35.4732 12.9731C35.8556 12.9731 36.148 12.7557 36.2604 12.3509L34.4312 7.72531H36.1105L37.0776 10.6716H37.0926L38.0222 7.72531H39.5815L37.9322 11.931ZM30.9002 10.8065C30.9002 11.1214 31.1776 11.3013 31.5449 11.2938C32.1297 11.2938 32.5045 10.7615 32.5045 10.2292C32.3021 10.2218 32.0847 10.2068 31.8448 10.2068C31.32 10.2068 30.9002 10.3717 30.9002 10.8065ZM26.2222 8.80485C25.6524 8.80485 25.2701 9.31464 25.2701 9.98935C25.2701 10.6641 25.7049 11.1439 26.2222 11.1439C26.8144 11.1439 27.1668 10.6566 27.1668 9.92938C27.1668 9.32963 26.8294 8.81235 26.2222 8.80485ZM26.2222 8.80485C25.6524 8.80485 25.2701 9.31464 25.2701 9.98935C25.2701 10.6641 25.7049 11.1439 26.2222 11.1439C26.8144 11.1439 27.1668 10.6566 27.1668 9.92938C27.1668 9.32963 26.8294 8.81235 26.2222 8.80485ZM26.2222 8.80485C25.6524 8.80485 25.2701 9.31464 25.2701 9.98935C25.2701 10.6641 25.7049 11.1439 26.2222 11.1439C26.8144 11.1439 27.1668 10.6566 27.1668 9.92938C27.1668 9.32963 26.8294 8.81235 26.2222 8.80485Z" fill="black"/>
<path d="M7.6743 7.71824V8.53539H7.65931C7.32945 7.97313 6.78968 7.61328 6.12246 7.61328C4.72055 7.61328 4.09082 8.61786 4.09082 9.96728C4.09082 11.3167 4.86299 12.2388 6.09997 12.2388C6.7222 12.2388 7.23949 11.9989 7.61433 11.4666H7.62932V11.714C7.62932 12.5987 7.14952 13.0185 6.24991 13.0185C5.59768 13.0185 5.20035 12.8835 4.72055 12.6511L4.63809 13.8806C5.00543 14.0156 5.62017 14.1655 6.36236 14.1655C8.18408 14.1655 9.0837 13.5658 9.0837 11.714V7.71824H7.6743ZM6.57976 11.0393C6.10747 11.0393 5.69514 10.642 5.69514 9.94479C5.69514 9.32256 5.99501 8.81277 6.57976 8.81277C7.28447 8.81277 7.57684 9.37503 7.57684 9.87732C7.57684 10.5745 7.13453 11.0393 6.57976 11.0393Z" fill="black"/>
<path d="M11.7156 5.8291H10.1562V6.98361H11.7156V5.8291Z" fill="black"/>
<path d="M11.7156 7.71826H10.1562V12.2388H11.7156V7.71826Z" fill="black"/>
<path d="M15.5316 7.61328C15.7116 7.61328 15.9065 7.64327 16.0564 7.66576L15.9814 8.97021C15.809 8.91773 15.6366 8.91773 15.4567 8.91773C14.7295 8.91773 14.3172 9.45 14.3172 10.3346V12.2463H12.7578V7.71824H14.1822V8.55038H14.1972C14.4671 7.97313 14.8569 7.61328 15.5316 7.61328Z" fill="black"/>
<path d="M18.7479 7.61328C17.256 7.61328 16.124 8.48291 16.124 9.98228C16.124 11.4816 17.2485 12.3438 18.7479 12.3438C20.2473 12.3438 21.3718 11.4741 21.3718 9.98228C21.3718 8.49041 20.2323 7.61328 18.7479 7.61328ZM18.7479 11.2492C18.0282 11.2492 17.7358 10.6495 17.7358 9.98228C17.7358 9.31506 18.0282 8.70782 18.7479 8.70782C19.4676 8.70782 19.76 9.30756 19.76 9.98228C19.76 10.657 19.4601 11.2492 18.7479 11.2492Z" fill="black"/>
<path d="M18.7471 7.61335C17.2552 7.61335 16.1232 8.48298 16.1232 9.98234C16.1232 11.4817 17.2477 12.3438 18.7471 12.3438C20.2465 12.3438 21.371 11.4742 21.371 9.98234C21.371 8.49047 20.2315 7.61335 18.7471 7.61335ZM18.7471 11.2493C18.0274 11.2493 17.735 10.6496 17.735 9.98234C17.735 9.31512 18.0274 8.70788 18.7471 8.70788C19.4668 8.70788 19.7592 9.30763 19.7592 9.98234C19.7592 10.6571 19.4593 11.2493 18.7471 11.2493ZM15.531 7.61335C14.8563 7.61335 14.4664 7.97319 14.1965 8.55045H14.1815V7.7183H12.7571V12.2464H14.3165V10.3347C14.3165 9.45007 14.7288 8.91779 15.456 8.91779C15.6359 8.91779 15.8084 8.91779 15.9808 8.97027L16.0557 7.66582C15.9058 7.64333 15.7109 7.61335 15.531 7.61335ZM10.1557 7.7183V12.2389H11.7151V7.7183H10.1557ZM10.1557 5.8291V6.98361H11.7151V5.8291H10.1557ZM7.6743 7.7183V8.53545H7.65931C7.32945 7.97319 6.78968 7.61335 6.12246 7.61335C4.72055 7.61335 4.09082 8.61792 4.09082 9.96735C4.09082 11.3168 4.86299 12.2389 6.09997 12.2389C6.7222 12.2389 7.23949 11.999 7.61433 11.4667H7.62932V11.7141C7.62932 12.5987 7.14952 13.0186 6.24991 13.0186C5.59768 13.0186 5.20035 12.8836 4.72055 12.6512L4.63809 13.8807C5.00543 14.0156 5.62017 14.1656 6.36236 14.1656C8.18408 14.1656 9.0837 13.5658 9.0837 11.7141V7.7183H7.6743ZM6.57976 11.0394C6.10747 11.0394 5.69514 10.6421 5.69514 9.94486C5.69514 9.32262 5.99501 8.81284 6.57976 8.81284C7.28447 8.81284 7.57684 9.3751 7.57684 9.87739C7.57684 10.5746 7.13453 11.0394 6.57976 11.0394Z" fill="black"/>
</g>
<defs>
<clipPath id="clip0_169_2227">
<rect width="41.7498" height="17.9849" fill="white" transform="translate(0.560547 0.993164)"/>
</clipPath>
</defs>
</svg>
