<svg width="84" height="19" viewBox="0 0 84 19" fill="none" xmlns="http://www.w3.org/2000/svg">
<path d="M32.3347 12.6984V9.51659C32.3347 8.31601 31.5619 7.50776 30.3183 7.4972C29.5968 7.45099 28.9071 7.79712 28.518 8.40081C28.1632 7.81499 27.5136 7.46827 26.8246 7.4972C26.2255 7.46857 25.6557 7.75565 25.3262 8.25233V7.61596H24.2109V12.6984H25.3369V9.88364C25.3369 9.00115 25.8293 8.53448 26.5914 8.53448C27.3534 8.53448 27.7067 9.01171 27.7067 9.87298V12.6984H28.8262V9.88364C28.8262 9.00115 29.34 8.53448 30.0806 8.53448C30.8213 8.53448 31.2065 9.01171 31.2065 9.87298V12.6984H32.3347ZM48.9955 7.62021H47.1738V6.08021H46.0477V7.62021H45.0074V8.62995H46.0477V10.9442C46.0477 12.1236 46.508 12.8258 47.8267 12.8258C48.3192 12.8274 48.8022 12.6913 49.2202 12.4334L48.8992 11.4872C48.6 11.6638 48.2605 11.7623 47.9123 11.7736C47.3557 11.7736 47.1717 11.4342 47.1717 10.9252V8.62995H48.9934L48.9955 7.62021ZM58.5064 7.49295C57.9525 7.47696 57.4341 7.76266 57.1557 8.23752V7.62021H56.0511V12.6984H57.1664V9.85175C57.1664 9.00332 57.5303 8.54505 58.2602 8.54505C58.4991 8.54169 58.7362 8.58493 58.9581 8.6724L59.3007 7.63087C59.0458 7.54054 58.7772 7.49384 58.5064 7.49295ZM44.1276 8.02329C43.4962 7.6515 42.7702 7.46748 42.0362 7.49295C40.739 7.49295 39.8956 8.11027 39.8956 9.11784C39.8956 9.94722 40.5163 10.4563 41.6638 10.6154L42.1882 10.6896C42.7983 10.7745 43.0894 10.9336 43.0894 11.22C43.0894 11.6124 42.6826 11.8373 41.9206 11.8373C41.3058 11.8566 40.7024 11.6697 40.2081 11.3069L39.7008 12.166C40.3502 12.616 41.1285 12.8473 41.9206 12.8258C43.3998 12.8258 44.2582 12.1342 44.2582 11.169C44.2582 10.2761 43.5817 9.8093 42.4686 9.65026L41.9441 9.57602C41.4625 9.51234 41.075 9.41688 41.075 9.07756C41.075 8.70626 41.4389 8.48354 42.0512 8.48354C42.6121 8.49184 43.1617 8.6414 43.6482 8.91842L44.1276 8.02329ZM73.9941 7.49295C73.4401 7.47696 72.9218 7.76266 72.6433 8.23752V7.62021H71.5387V12.6984H72.654V9.85175C72.654 9.00332 73.0179 8.54505 73.7479 8.54505C73.9867 8.54169 74.2239 8.58493 74.4457 8.6724L74.7883 7.63087C74.5334 7.54054 74.2648 7.49384 73.9941 7.49295ZM59.6324 10.1594C59.6324 11.6994 60.7156 12.8258 62.366 12.8258C63.0353 12.8586 63.6927 12.6422 64.2091 12.219L63.674 11.326C63.2884 11.6169 62.8185 11.777 62.3339 11.7821C61.4435 11.7821 60.7905 11.133 60.7905 10.1572C60.7905 9.18142 61.4455 8.54297 62.3339 8.53241C62.8185 8.53755 63.2884 8.69748 63.674 8.98842L64.2091 8.09536C63.6927 7.67233 63.0353 7.45593 62.366 7.48871C60.7156 7.48871 59.6324 8.61514 59.6324 10.1551V10.1594ZM70.0745 10.1594V7.61389H68.9593V8.23111C68.5734 7.73779 67.9702 7.46027 67.3409 7.48663C65.9046 7.48663 64.7722 8.60241 64.7722 10.153C64.7722 11.7036 65.8981 12.8194 67.3409 12.8194C67.9702 12.8457 68.5734 12.5682 68.9593 12.0748V12.69H70.0745V10.1594ZM65.9259 10.1594C65.9259 9.26632 66.5147 8.53448 67.4801 8.53448C68.4027 8.53448 69.0234 9.23661 69.0234 10.1594C69.0234 11.0821 68.4027 11.7843 67.4801 11.7843C66.5147 11.7843 65.9259 11.0503 65.9259 10.1594ZM52.4698 7.49295C50.9714 7.49295 49.9181 8.57694 49.9181 10.1594C49.9181 11.7736 51.012 12.8258 52.5447 12.8258C53.31 12.8524 54.0584 12.5986 54.6468 12.113L54.1009 11.2942C53.6752 11.6317 53.1477 11.8184 52.6025 11.8245C51.8832 11.8245 51.2303 11.4957 51.0697 10.5815H54.8758C54.8866 10.4436 54.8973 10.3057 54.8973 10.1572C54.8973 8.57476 53.8997 7.49088 52.4633 7.49088L52.4698 7.49295ZM52.4484 8.48147C53.1676 8.48147 53.6279 8.92691 53.7456 9.71393H51.0891C51.2068 8.97992 51.6563 8.48147 52.4504 8.48147H52.4484ZM80.4161 10.1594V5.57959H79.3008V8.23535C78.915 7.74203 78.3118 7.46452 77.6825 7.49088C76.2461 7.49088 75.1137 8.60665 75.1137 10.1572C75.1137 11.7079 76.2397 12.8236 77.6825 12.8236C78.3118 12.85 78.915 12.5725 79.3008 12.0791V12.6942H80.4161V10.1594ZM81.7197 12.2297C81.7639 12.2295 81.8075 12.2382 81.8482 12.2552C81.8874 12.2717 81.9229 12.2955 81.9531 12.3252C81.983 12.3543 82.007 12.3888 82.0237 12.427C82.0584 12.5068 82.0584 12.5974 82.0237 12.6773C82.0069 12.7153 81.983 12.7499 81.9531 12.7791C81.9229 12.8087 81.8873 12.8324 81.8482 12.8491C81.8076 12.8663 81.7639 12.8749 81.7197 12.8746C81.5862 12.8762 81.4648 12.7985 81.4115 12.6773C81.377 12.5974 81.377 12.5069 81.4115 12.427C81.4449 12.3491 81.508 12.2874 81.587 12.2552C81.6304 12.2373 81.6771 12.2286 81.724 12.2297H81.7197ZM81.7197 12.8024C81.7536 12.803 81.7871 12.7965 81.8182 12.7833C81.8477 12.7707 81.8746 12.7527 81.8974 12.7303C81.9966 12.6318 81.9966 12.4725 81.8974 12.3739C81.8747 12.3514 81.8478 12.3335 81.8182 12.3209C81.7871 12.3079 81.7536 12.3014 81.7197 12.3018C81.6852 12.3014 81.651 12.3079 81.6191 12.3209C81.4897 12.3756 81.4296 12.524 81.4849 12.6521C81.4974 12.6813 81.5153 12.7078 81.5377 12.7303C81.5611 12.753 81.5888 12.771 81.6191 12.7833C81.6523 12.7971 81.6881 12.8035 81.724 12.8024H81.7197ZM81.739 12.3994C81.7711 12.3971 81.8029 12.4061 81.8289 12.4249C81.8503 12.4418 81.8622 12.4677 81.861 12.4949C81.8618 12.5181 81.8524 12.5405 81.8353 12.5564C81.8158 12.5737 81.7909 12.5841 81.7647 12.5861L81.8632 12.6984H81.7861L81.6941 12.5861H81.6641V12.6984H81.5998V12.4015L81.739 12.3994ZM81.6641 12.4545V12.5352H81.739C81.7523 12.539 81.7665 12.539 81.7796 12.5352C81.7896 12.5285 81.7952 12.5173 81.7946 12.5054C81.7952 12.4936 81.7896 12.4823 81.7796 12.4757C81.7665 12.4719 81.7523 12.4719 81.739 12.4757L81.6641 12.4545ZM76.2717 10.1594C76.2717 9.26632 76.8605 8.53448 77.8259 8.53448C78.7485 8.53448 79.3693 9.23661 79.3693 10.1594C79.3693 11.0821 78.7485 11.7843 77.8259 11.7843C76.8605 11.7843 76.2717 11.0503 76.2717 10.1594ZM38.6175 10.1594V7.61389H37.5022V8.23111C37.1164 7.74203 36.5164 7.46718 35.8904 7.49295C34.454 7.49295 33.3216 8.60872 33.3216 10.1594C33.3216 11.71 34.4476 12.8258 35.8904 12.8258C36.5197 12.8521 37.1229 12.5745 37.5087 12.0812V12.6964H38.624L38.6175 10.1594ZM34.469 10.1594C34.469 9.26632 35.0576 8.53448 36.0231 8.53448C36.9457 8.53448 37.5665 9.23661 37.5665 10.1594C37.5665 11.0821 36.9457 11.7843 36.0231 11.7843C35.0576 11.7843 34.469 11.0524 34.469 10.1594Z" fill="black"/>
<path d="M10.4888 5.46422C10.5633 5.39979 10.6391 5.33732 10.7169 5.2768C10.794 5.33732 10.8705 5.39979 10.945 5.46422C12.2136 6.56401 13.0175 8.18247 13.0175 9.98965C13.0175 11.7962 12.2136 13.4146 10.945 14.5144C10.8705 14.5788 10.794 14.6413 10.7169 14.7025C10.6391 14.6413 10.5633 14.5788 10.4888 14.5144C9.21954 13.4146 8.41629 11.7962 8.41629 9.98965C8.41629 8.18247 9.21954 6.56401 10.4888 5.46422Z" fill="black"/>
<path d="M11.1051 4.99437C12.0594 4.36117 13.2064 3.99219 14.439 3.99219C17.7658 3.99219 20.4624 6.67725 20.4624 9.98965C20.4624 13.3014 17.7658 15.9871 14.439 15.9871C13.2064 15.9871 12.0594 15.6175 11.1051 14.9843C11.1535 14.9446 11.2032 14.9049 11.2509 14.8645C12.6698 13.6352 13.4835 11.858 13.4835 9.98965C13.4835 8.12065 12.6698 6.3434 11.2502 5.11411C11.2032 5.07311 11.1535 5.03406 11.1051 4.99437Z" fill="black"/>
<path d="M10.3287 14.9843C10.2797 14.9446 10.23 14.9049 10.1829 14.8645C8.764 13.6352 7.95029 11.8586 7.95029 9.98965C7.95029 8.12065 8.764 6.3434 10.1829 5.11411C10.23 5.07311 10.2797 5.03406 10.3287 4.99437C9.37379 4.36117 8.22741 3.99219 6.9941 3.99219C3.66738 3.99219 0.970703 6.67725 0.970703 9.98965C0.970703 13.3014 3.66738 15.9871 6.9941 15.9871C8.22741 15.9871 9.37379 15.6175 10.3287 14.9843Z" fill="black"/>
<path d="M20.2742 13.4732V13.7055H20.2311V13.5298L20.1651 13.6814H20.1206L20.0546 13.5305V13.7055H20.0115V13.4732H20.0723L20.1428 13.6333L20.2128 13.4732H20.2742Z" fill="black"/>
<path d="M19.8873 13.5129V13.7055H19.8448V13.5129H19.7664V13.4732H19.9657V13.5129H19.8873Z" fill="black"/>
</svg>
