<svg width="39" height="19" viewBox="0 0 39 19" fill="none" xmlns="http://www.w3.org/2000/svg">
<path d="M29.1261 5.16493L32.0727 4.65057V15.8637H29.1261V5.16493ZM33.4423 5.16493V15.8637H36.389V4.65057L33.4423 5.16493ZM24.9344 15.8637H27.881V7.65444H24.9344V15.8637ZM5.44908 8.82719C5.07553 8.80662 4.20403 8.7449 4.20403 7.98364C4.20403 7.05779 5.44909 7.05779 5.90557 7.05779C6.71484 7.05779 7.79389 7.30468 8.54092 7.531C8.54092 7.531 8.95602 7.67502 9.3295 7.83961H9.37104V5.2678L9.3295 5.24723C8.43722 4.93861 7.39964 4.62999 5.46978 4.62999C2.14962 4.65057 0.966797 6.564 0.966797 8.20995C0.966797 9.15637 1.38182 11.399 5.1793 11.6459C5.51132 11.6665 6.36205 11.7076 6.36205 12.51C6.36205 13.1684 5.65655 13.5593 4.47373 13.5593C3.18721 13.5593 1.92138 13.2302 1.17435 12.9215V15.5344C2.31563 15.8226 3.60223 15.9871 5.0963 15.9871C8.35422 15.9871 9.80675 14.1765 9.80675 12.366C9.80675 10.3291 8.18821 9.01235 5.44908 8.82719ZM23.2742 7.531C20.5559 7.6133 19.1655 8.82719 19.1655 11.2344V15.8431H22.1329V12.0985C22.1329 10.6583 22.3197 10.0411 24.042 9.97934V7.59272C23.7515 7.531 23.2742 7.531 23.2742 7.531ZM15.2643 7.65444C15.2021 7.81904 14.7248 9.13584 13.5835 10.5143V4.65057L10.5538 5.24723V15.8637H13.6042V12.5717C14.4757 13.8885 14.9116 15.8637 14.9116 15.8637H18.5638C18.211 14.3823 16.6339 11.6459 16.6339 11.6459C18.045 9.87646 18.6675 7.96306 18.7712 7.65444H15.2643ZM26.4077 6.87261C27.2169 6.87261 27.8602 6.2348 27.8602 5.4324C27.8602 4.62999 27.2169 3.99219 26.4077 3.99219C25.5984 3.99219 24.9551 4.62999 24.9551 5.4324C24.9551 6.2348 25.5984 6.87261 26.4077 6.87261Z" fill="black"/>
</svg>
