<svg width="155" height="48" viewBox="0 0 155 48" fill="none" xmlns="http://www.w3.org/2000/svg">
<g clip-path="url(#clip0_169_2203)">
<path d="M42.572 0.386874C40.6445 1.7738 38.9501 3.32628 37.4815 5.12769C37.3527 5.28589 37.1883 5.42813 37.1048 5.6084C36.5956 6.70715 35.7319 6.91439 34.5822 6.8776C31.9272 6.79176 29.2684 6.83101 26.6109 6.86412C25.99 6.87147 25.3434 6.97203 24.7607 7.17804C24.0552 7.42698 23.6589 8.0156 23.6662 8.79306C23.6724 9.46384 24.1595 10.0341 24.93 10.2781C25.7851 10.5491 26.6538 10.7772 27.5102 11.047C27.9176 11.1757 28.3188 11.3339 28.704 11.5179C30.8475 12.5345 31.8842 14.1164 31.6168 16.4672C31.11 20.9382 29.0586 24.4294 24.7975 26.3375C22.8663 27.2021 20.8001 27.5221 18.707 27.5356C12.6975 27.5736 6.68672 27.5589 0.677203 27.5638C0.620764 27.5638 0.565552 27.5417 0.445312 27.5172C1.27963 25.2057 2.10658 22.9137 2.94089 20.6022C3.23904 20.6022 3.50283 20.6022 3.76662 20.6022C8.67312 20.6022 13.5796 20.6145 18.4849 20.5912C19.399 20.5875 20.3179 20.4845 21.2234 20.3557C21.8491 20.2662 22.2724 19.8456 22.5141 19.2521C22.9117 18.2723 22.6246 17.496 21.632 17.1244C20.7744 16.8032 19.8824 16.5714 19.0027 16.3139C17.7267 15.9411 16.5868 15.3439 15.6433 14.3862C14.6017 13.3279 14.3231 12.0464 14.6127 10.6533C15.1035 8.29151 16.02 6.09646 17.4261 4.12459C19.0677 1.82285 21.3608 0.627226 24.1423 0.518086C27.4292 0.389326 30.7211 0.412626 34.0117 0.390552C36.6693 0.373384 39.3268 0.386874 41.9843 0.386874H42.5733H42.572Z" fill="black"/>
<path d="M109.794 0.400792C112.359 0.400792 114.892 0.377493 117.425 0.409376C118.853 0.42777 120.281 0.511158 121.704 0.621524C122.287 0.666896 122.871 0.822634 123.434 0.996767C126.498 1.94591 127.819 4.25746 127.127 7.39307C126.221 11.5024 123.552 14.0567 119.828 15.6864C119.607 15.7833 119.388 15.8802 119.155 15.9808C121.061 19.6412 121.859 23.6095 122.931 27.579C122.496 27.579 122.136 27.579 121.775 27.579C119.425 27.579 117.074 27.5692 114.723 27.5875C114.311 27.5912 114.128 27.5066 114.027 27.0578C113.409 24.3134 112.748 21.5775 112.099 18.8392C112.052 18.643 111.992 18.4517 111.889 18.0826C111.751 18.4113 111.665 18.5976 111.594 18.7889C110.567 21.5395 109.533 24.2864 108.527 27.0443C108.376 27.4576 108.177 27.5937 107.737 27.59C105.366 27.5667 102.995 27.579 100.623 27.5777C100.445 27.5777 100.267 27.5618 99.9912 27.5495C103.27 18.4689 106.527 9.44588 109.793 0.399566L109.794 0.400792ZM112.862 12.5974C113.433 12.5974 113.86 12.6036 114.286 12.5974C117.118 12.5484 118.942 11.0094 119.491 8.21346C119.72 7.04358 119.28 6.32866 118.106 6.15575C117.284 6.03558 116.441 6.03312 115.608 6.03312C115.447 6.03312 115.208 6.26489 115.14 6.44148C114.551 7.98046 113.992 9.53049 113.424 11.0781C113.251 11.549 113.076 12.0186 112.862 12.5987V12.5974Z" fill="black"/>
<path d="M86.3492 28.1C85.3038 27.9394 84.2364 27.8646 83.218 27.6009C80.0219 26.7756 78.1238 24.3243 77.9852 21.0207C77.86 18.0482 78.687 15.2878 79.8403 12.6059C81.5482 8.63273 83.9333 5.16112 87.5503 2.67421C90.7428 0.47916 94.258 -0.483474 98.124 0.232677C101.724 0.899776 103.79 3.40508 103.876 7.1011C103.934 9.59659 103.303 11.9498 102.41 14.2491C101.047 17.76 99.3215 21.0562 96.6088 23.7393C93.7758 26.5426 90.3674 27.9872 86.348 28.0988L86.3492 28.1ZM85.8461 18.6821C85.8277 21.1335 86.5627 21.8607 88.3319 21.8239C89.4472 21.8006 90.4373 21.4217 91.1673 20.5841C91.7526 19.9121 92.2986 19.18 92.7182 18.3976C94.0948 15.8372 95.0923 13.1185 95.7781 10.2968C95.9818 9.45802 96.0358 8.56406 96.0211 7.6983C96.0076 6.87915 95.5107 6.38495 94.6911 6.25865C94.177 6.17894 93.6273 6.15564 93.1182 6.24761C91.5563 6.52965 90.5588 7.61737 89.6901 8.83262C88.3344 10.7297 87.4743 12.8696 86.786 15.0744C86.3516 16.4675 86.0461 17.9022 85.8449 18.6834L85.8461 18.6821Z" fill="black"/>
<path d="M41.6612 28.11C40.5569 27.9297 39.4257 27.85 38.3546 27.5508C35.2873 26.6924 33.4469 24.1883 33.3328 20.9178C33.242 18.334 33.8837 15.8998 34.8174 13.5294C36.4553 9.3711 38.7877 5.69347 42.4415 3.00545C45.7432 0.57618 49.4191 -0.517667 53.5219 0.240178C57.0285 0.887657 59.1045 3.37456 59.2247 6.959C59.3094 9.49864 58.6787 11.8911 57.7733 14.2309C56.3979 17.7834 54.6446 21.1054 51.895 23.8131C49.0817 26.5832 45.6279 27.991 41.6624 28.11H41.6612ZM41.1925 19.1164C41.1778 20.9436 41.7692 21.6928 43.1556 21.8105C44.4193 21.9172 45.5653 21.5935 46.4524 20.6591C46.9542 20.1305 47.4253 19.5468 47.7873 18.9165C49.3197 16.2469 50.3614 13.3725 51.111 10.3987C51.3306 9.52439 51.3969 8.58751 51.3723 7.68373C51.3503 6.8376 50.8607 6.41821 50.035 6.24407C48.267 5.87128 46.9309 6.64752 45.807 7.89343C44.2316 9.63966 43.3212 11.7587 42.5311 13.9341C41.8894 15.6987 41.298 17.4793 41.1937 19.1176L41.1925 19.1164Z" fill="black"/>
<path d="M87.3282 0.386912C85.5369 1.66961 83.8437 2.98051 82.3898 4.57345C81.8672 5.1449 81.358 5.73842 80.92 6.37487C80.65 6.7685 80.358 6.87028 79.9114 6.86661C77.3974 6.84576 74.8835 6.85189 72.3695 6.85189C71.0665 6.85189 70.6493 7.15356 70.2101 8.39578C69.8923 9.29465 69.577 10.196 69.2347 11.1709H76.4036C76.3362 11.4124 76.2993 11.5829 76.2404 11.7448C75.681 13.2985 75.1043 14.8448 74.5669 16.4071C74.432 16.8007 74.2577 16.9356 73.8332 16.9295C71.7695 16.9025 69.7046 16.9258 67.6409 16.9025C67.2446 16.8976 67.0777 17.0288 66.9489 17.393C65.8152 20.5814 64.6484 23.7575 63.5282 26.9495C63.3528 27.4498 63.116 27.5835 62.6141 27.5786C60.3455 27.5516 58.0769 27.5675 55.8084 27.5675C55.6084 27.5675 55.4084 27.5675 55.1348 27.5675C55.2121 27.31 55.2599 27.1187 55.3262 26.9335C57.7211 20.3006 60.1198 13.6676 62.5148 7.03461C63.6865 3.78985 65.7747 1.50406 69.2322 0.699615C70.0408 0.511993 70.8873 0.405306 71.7168 0.401627C76.8257 0.374649 81.9359 0.388138 87.0448 0.388138C87.1381 0.388138 87.2325 0.388138 87.3258 0.388138L87.3282 0.386912Z" fill="black"/>
<path d="M126.835 27.5872C129.334 20.6563 131.808 13.7989 134.308 6.86668H129.371C129.597 4.3344 128.936 2.17123 126.928 0.436035H153.69C153.268 1.62063 152.854 2.78683 152.435 3.9518C152.16 4.71945 151.85 5.47607 151.612 6.25599C151.471 6.7183 151.262 6.88262 150.754 6.87649C147.953 6.84583 145.152 6.87281 142.351 6.85074C141.903 6.84706 141.72 6.99421 141.573 7.40502C139.247 13.8933 136.894 20.3718 134.578 26.8637C134.37 27.4499 134.108 27.6154 133.5 27.6032C131.316 27.559 129.131 27.586 126.834 27.586L126.835 27.5872Z" fill="black"/>
<path d="M61.7823 38.6576C60.1272 41.4265 58.5457 44.0189 57.0243 46.6468C56.5814 47.4108 56.0403 47.7996 55.1581 47.7358C54.6906 47.7015 54.2183 47.7358 53.7484 47.7186C52.9852 47.6904 52.8772 47.585 52.9496 46.8431C53.1693 44.5658 53.4036 42.2911 53.6379 40.0163C53.8073 38.3706 53.9987 36.7274 54.1533 35.0817C54.2121 34.4539 54.5103 34.1596 55.1336 34.1682C55.6231 34.1755 56.1139 34.1682 56.6034 34.1731C56.9985 34.178 57.1102 34.3521 57.0525 34.7617C56.6329 37.7747 56.2378 40.7901 55.8378 43.8055C55.7986 44.1048 55.7704 44.4052 55.828 44.7424C55.9348 44.583 56.0476 44.4285 56.1458 44.2654C57.9396 41.272 59.7616 38.2958 61.5038 35.273C61.9749 34.4551 62.5406 34.124 63.4559 34.1265C64.9834 34.1301 65.0165 34.1216 64.8472 35.6213C64.5319 38.4013 64.2055 41.1788 63.8816 43.9576C63.8558 44.1796 63.808 44.3978 63.7712 44.6186L63.9258 44.6848C64.0436 44.5156 64.1736 44.3537 64.2779 44.1771C66.0925 41.1016 67.9023 38.0236 69.7157 34.9481C70.1218 34.2589 71.6788 33.8297 72.3634 34.2368C72.4517 34.2896 72.5131 34.525 72.4713 34.6329C72.3634 34.9162 72.2063 35.1835 72.0456 35.4423C69.6973 39.2217 67.3366 42.9925 65.003 46.7805C64.6079 47.4231 64.1123 47.7566 63.3589 47.7297C62.808 47.71 62.2547 47.7382 61.7038 47.7149C61.0413 47.6855 60.9149 47.5163 60.9873 46.8798C61.2547 44.5266 61.5222 42.1734 61.7786 39.8177C61.813 39.4988 61.7835 39.1726 61.7835 38.6588L61.7823 38.6576Z" fill="black"/>
<path d="M120.258 37.4012C119.428 39.7287 118.653 41.9029 117.878 44.0759C117.535 45.0349 117.167 45.9865 116.853 46.9552C116.682 47.4838 116.359 47.691 115.825 47.729C114.16 47.8467 114.099 47.7793 114.651 46.2452C115.929 42.6988 117.206 39.1524 118.484 35.6059C118.912 34.4165 119.2 34.2129 120.455 34.2129C120.639 34.2129 120.823 34.2129 121.007 34.2129C122.499 34.2129 122.661 34.3515 122.887 35.834C123.27 38.3553 123.649 40.8765 124.032 43.3978C124.045 43.4897 124.096 43.5768 124.147 43.7178C125.092 41.0899 126.015 38.5233 126.937 35.9567C127.013 35.7457 127.07 35.525 127.172 35.3276C127.352 34.9805 127.5 34.4336 127.773 34.3539C128.357 34.1847 129.018 34.2006 129.636 34.257C130.041 34.2938 129.851 34.6544 129.765 34.8923C128.889 37.3277 128.01 39.7606 127.131 42.1948C126.626 43.594 126.12 44.9932 125.612 46.3911C125.227 47.4531 124.869 47.7069 123.762 47.7106C121.88 47.7155 121.828 47.6579 121.535 45.7743C121.162 43.3757 120.764 40.9808 120.383 38.5821C120.328 38.2376 120.307 37.8868 120.255 37.3988L120.258 37.4012Z" fill="black"/>
<path d="M23.6458 40.3871C25.1366 41.0186 25.5893 41.9751 25.0679 43.4847C24.2066 45.9814 22.2962 47.2408 19.7982 47.5486C18.1234 47.7546 16.4119 47.6737 14.7162 47.6872C14.1249 47.6921 13.9838 47.3806 14.2291 46.6951C15.0475 44.4118 15.8769 42.1321 16.7014 39.8512C17.256 38.3184 17.8069 36.7831 18.3651 35.2514C18.6743 34.4016 18.9541 34.1993 19.8669 34.2152C21.3981 34.241 22.9391 34.1882 24.4568 34.3501C26.3856 34.5549 27.0604 35.8094 26.3856 37.6341C25.896 38.9573 24.9538 39.8377 23.6446 40.3883L23.6458 40.3871ZM17.2842 45.654C18.3099 45.5988 19.2289 45.6283 20.1184 45.4799C21.1809 45.3033 21.8913 44.619 22.2103 43.5718C22.5073 42.5981 22.1134 41.9359 21.1147 41.8304C20.408 41.7556 19.6914 41.7765 18.9786 41.7753C18.8596 41.7753 18.667 41.8501 18.6338 41.9384C18.186 43.1291 17.7603 44.3284 17.2842 45.6528V45.654ZM19.424 39.7286C20.1442 39.7286 20.7981 39.7752 21.4423 39.7176C22.5183 39.6207 23.5023 38.6262 23.6508 37.5642C23.7563 36.8162 23.4434 36.3796 22.6864 36.3109C22.1195 36.2594 21.5453 36.2692 20.9748 36.2815C20.8435 36.284 20.6374 36.3821 20.5969 36.4875C20.1945 37.547 19.8203 38.6176 19.4227 39.7286H19.424Z" fill="black"/>
<path d="M139.044 42.0899C138.216 42.0899 137.501 42.0765 136.787 42.0948C136.359 42.1059 136.222 41.9379 136.359 41.5381C136.451 41.2683 136.544 40.9986 136.635 40.7288C136.815 40.1929 137.16 39.9807 137.748 39.9991C139.014 40.0396 140.282 40.0053 141.55 40.0138C142.232 40.0187 142.405 40.2468 142.176 40.898C141.539 42.7043 140.898 44.5106 140.21 46.2973C140.084 46.6235 139.773 47 139.46 47.1128C137.456 47.8363 135.394 48.187 133.269 47.7223C131.052 47.2367 129.92 45.7075 130.171 43.4438C130.585 39.7293 133.241 35.4901 137.779 34.3067C139.433 33.8763 141.086 33.8309 142.735 34.3337C142.891 34.3815 143.047 34.433 143.195 34.498C144.135 34.9137 144.252 35.1847 143.918 36.1584C143.885 36.2553 143.854 36.3522 143.816 36.4466C143.391 37.5122 143.324 37.5355 142.335 36.9506C140.252 35.7182 137.589 36.0395 135.641 37.7906C134.318 38.9789 133.522 40.4872 133.223 42.2236C132.813 44.6063 134.169 45.9307 136.604 45.6033C137.44 45.4917 138.098 45.2415 138.285 44.2494C138.417 43.5419 138.759 42.8748 139.043 42.0875L139.044 42.0899Z" fill="black"/>
<path d="M46.9087 41.4338C47.6768 42.0764 47.8007 42.9508 47.8449 43.8631C47.8903 44.7816 47.9823 45.6964 48.0191 46.6149C48.0559 47.5407 47.894 47.7002 46.9922 47.7271C46.6044 47.7394 46.2143 47.71 45.8278 47.7345C45.2622 47.7713 45.0254 47.5542 45.0193 46.9644C45.007 45.862 44.953 44.7595 44.8671 43.6595C44.7726 42.4431 43.9371 41.8643 42.785 42.2027C42.6415 42.2444 42.5151 42.4762 42.4525 42.6466C41.9323 44.0618 41.4059 45.4757 40.9299 46.9067C40.736 47.4892 40.3851 47.6977 39.806 47.7259C37.8736 47.8228 37.8601 47.8167 38.5079 46.0214C39.7962 42.4566 41.0857 38.8917 42.3777 35.3282C42.7237 34.3753 42.958 34.2 43.9445 34.2147C45.5162 34.238 47.1014 34.1656 48.6571 34.3434C50.6484 34.5715 51.3551 35.8653 50.7184 37.7746C50.1454 39.4951 49.1454 40.4614 46.905 41.4326L46.9087 41.4338ZM43.3788 40.0972C44.0475 40.0972 44.661 40.1413 45.2659 40.0886C46.5885 39.9733 47.5885 39.0634 47.8682 37.7881C48.0363 37.0229 47.7688 36.541 46.9836 36.4146C46.3259 36.308 45.6474 36.3251 44.9775 36.3129C44.8732 36.3104 44.7052 36.4245 44.6683 36.5226C44.2316 37.6986 43.8132 38.8819 43.3788 40.0972Z" fill="black"/>
<path d="M4.3914 47.9648C3.92516 47.9146 3.45279 47.89 2.99269 47.8079C1.06886 47.467 0.124127 46.1438 0.508157 44.2271C0.683608 43.354 0.996475 42.503 1.29462 41.6593C2.09581 39.3919 2.9338 37.138 3.73253 34.8693C3.88345 34.4401 4.1227 34.2145 4.56439 34.2047C5.05271 34.1936 5.54103 34.1875 6.02935 34.1949C6.54589 34.2022 6.63055 34.4352 6.4551 34.9086C5.55698 37.3354 4.66991 39.7671 3.81351 42.2099C3.60616 42.7985 3.45034 43.4276 3.4074 44.0469C3.34605 44.9347 3.88467 45.5061 4.77297 45.6263C6.37167 45.8421 7.62314 45.2351 8.51021 43.923C8.83657 43.4398 9.06969 42.8819 9.27336 42.3313C10.1764 39.8836 11.0684 37.4323 11.926 34.9699C12.11 34.4426 12.3971 34.1851 12.9358 34.1875C13.4032 34.19 13.8719 34.1875 14.3394 34.2096C14.7013 34.2268 14.8412 34.3837 14.6976 34.7725C13.6645 37.5843 12.7137 40.4281 11.6045 43.2105C10.3886 46.2615 7.7127 47.944 4.39017 47.9673L4.3914 47.9648Z" fill="black"/>
<path d="M104.403 47.9501C104.09 47.9071 103.557 47.8753 103.041 47.7563C101.227 47.3394 100.364 46.0873 100.754 44.2688C100.997 43.1393 101.412 42.043 101.795 40.9492C102.495 38.9491 103.244 36.965 103.938 34.9637C104.11 34.4695 104.368 34.196 104.893 34.1936C104.933 34.1936 104.974 34.1826 105.014 34.1776C106.811 33.9532 106.96 34.1335 106.364 35.7841C105.555 38.027 104.738 40.2674 103.952 42.5188C103.786 42.9934 103.671 43.5048 103.645 44.0051C103.598 44.9273 104.126 45.5098 105.04 45.6275C106.64 45.8335 107.909 45.2338 108.76 43.8996C109.192 43.2227 109.472 42.4379 109.755 41.6764C110.586 39.4409 111.398 37.1992 112.182 34.9478C112.356 34.4474 112.625 34.1875 113.143 34.1911C113.651 34.1948 114.161 34.1887 114.668 34.2218C114.971 34.2426 115.075 34.4057 114.956 34.7307C113.901 37.6002 112.965 40.5175 111.787 43.3343C110.486 46.443 107.957 47.8753 104.402 47.9488L104.403 47.9501Z" fill="black"/>
<path d="M76.1802 39.6344C77.4894 39.6344 78.6733 39.6491 79.8573 39.627C80.3739 39.6172 80.5395 39.7975 80.3542 40.2855C80.2966 40.4376 80.2635 40.5995 80.207 40.7515C79.8586 41.6909 79.8021 41.7289 78.7948 41.7289C77.8341 41.7289 76.8734 41.7436 75.914 41.7215C75.5569 41.7129 75.3741 41.8061 75.2539 42.1691C74.8883 43.2679 74.4748 44.3507 74.0454 45.5377H74.7459C75.9716 45.5377 77.1986 45.5365 78.4243 45.5377C79.1163 45.5389 79.1666 45.6101 78.9727 46.2894C78.9445 46.3875 78.9101 46.4832 78.8758 46.5788C78.5016 47.6408 78.4243 47.696 77.3065 47.696C75.406 47.696 73.5055 47.6997 71.605 47.6947C70.8222 47.6923 70.6431 47.4507 70.9069 46.7162C72.2908 42.8632 73.681 39.0126 75.076 35.1633C75.3435 34.4263 75.671 34.2117 76.4563 34.2117C78.4795 34.2093 80.5027 34.2289 82.5247 34.1995C83.1075 34.1909 83.2118 34.3969 83.0314 34.8862C82.9823 35.0199 82.9492 35.1597 82.9014 35.2933C82.5394 36.3001 82.4732 36.3455 81.4131 36.3455C80.2279 36.3455 79.0427 36.3577 77.8574 36.3381C77.4979 36.332 77.309 36.4289 77.1912 36.7918C76.8894 37.7165 76.5422 38.6264 76.179 39.6331L76.1802 39.6344Z" fill="black"/>
<path d="M32.3229 39.6348C33.594 39.6348 34.778 39.6323 35.962 39.6348C36.5521 39.6372 36.6466 39.7587 36.4932 40.3252C36.4294 40.5606 36.3264 40.7851 36.2479 41.0156C36.0675 41.5478 35.7313 41.7698 35.1399 41.7416C34.0995 41.6925 33.0554 41.7158 32.0137 41.7391C31.8321 41.7428 31.5462 41.8556 31.4923 41.9905C31.0469 43.1248 30.6445 44.2763 30.1917 45.5259H35.1792C35.2111 46.3377 34.9473 46.9643 34.524 47.5186C34.4271 47.6449 34.1596 47.689 33.9707 47.6903C31.8653 47.7013 29.7598 47.7025 27.6544 47.6939C26.9882 47.6915 26.8005 47.4328 27.0275 46.7988C28.4298 42.8857 29.842 38.9763 31.2567 35.0669C31.4469 34.5433 31.8027 34.2122 32.3965 34.2109C34.5633 34.2109 36.73 34.2109 38.8968 34.2122C38.9937 34.2122 39.0919 34.2416 39.2342 34.2637C39.2305 34.9798 39.0097 35.6065 38.5888 36.1387C38.4711 36.2883 38.1545 36.3312 37.9275 36.3349C36.681 36.3533 35.4319 36.379 34.1878 36.3275C33.6271 36.3042 33.4001 36.5078 33.2455 37.0105C32.9842 37.864 32.6566 38.6979 32.3229 39.6311V39.6348Z" fill="black"/>
<path d="M90.9702 47.9797C90.477 47.8375 89.612 47.6241 88.7752 47.3322C88.2059 47.1336 88.0219 46.6847 88.2648 46.0986C88.4047 45.7601 88.5151 45.4094 88.6672 45.0759C88.8832 44.5988 89.1789 44.5093 89.6255 44.8576C90.634 45.6424 91.7787 45.9061 93.0302 45.6142C93.8032 45.4339 94.4093 45.0109 94.7847 44.2972C95.1737 43.5577 95.0681 43.0316 94.3811 42.5473C93.9332 42.2309 93.44 41.9783 92.9627 41.7048C91.1763 40.6833 90.7727 39.5122 91.5554 37.6066C92.7308 34.7469 96.3405 33.1907 99.2287 34.298C100.161 34.6561 100.258 34.8658 99.9256 35.8137C99.9059 35.8714 99.874 35.9253 99.8532 35.983C99.5603 36.7637 99.0487 36.9554 98.3183 36.5581C97.4508 36.086 96.5196 35.9045 95.6141 36.3177C95.1491 36.5299 94.7185 36.9529 94.4326 37.3858C94.0375 37.9843 94.1847 38.5079 94.7737 38.9297C95.2522 39.2719 95.7834 39.5416 96.2975 39.8335C98.1637 40.8918 98.6005 42.1217 97.6889 44.0679C96.4423 46.7264 94.1847 47.8007 90.9702 47.9797Z" fill="black"/>
<path d="M83.1548 47.7479C81.8101 47.7541 81.7659 47.6927 82.2137 46.453C83.572 42.6981 84.951 38.9506 86.2663 35.1809C86.5191 34.4574 86.9019 34.1913 87.6233 34.1423C89.2674 34.0295 89.3827 34.1521 88.8367 35.6666C87.5386 39.2694 86.2418 42.8734 84.9437 46.4763C84.5093 47.6817 84.4235 47.7406 83.1548 47.7467V47.7479Z" fill="black"/>
<path d="M12.0871 33.0078C11.07 33.0054 10.8639 32.6976 11.2246 31.7166C11.627 30.6227 12.4895 30.1861 13.6036 30.4866C13.9631 30.5835 14.103 30.776 14.0797 31.1439C14.0073 32.2941 13.2502 33.0103 12.0871 33.0078Z" fill="black"/>
<path d="M7.59148 33.0064C6.56454 33.0064 6.3486 32.6962 6.70441 31.7262C7.10562 30.6299 7.95343 30.1945 9.0773 30.4815C9.43556 30.5735 9.61592 30.7586 9.5558 31.1265C9.36685 32.2756 8.84909 33.0812 7.59271 33.0064H7.59148Z" fill="black"/>
</g>
<defs>
<clipPath id="clip0_169_2203">
<rect width="153.268" height="47.9797" fill="white" transform="translate(0.422852)"/>
</clipPath>
</defs>
</svg>
