<svg width="40" height="19" viewBox="0 0 40 19" fill="none" xmlns="http://www.w3.org/2000/svg">
<path d="M39.3584 15.6884C38.3819 15.6884 37.4053 15.6884 36.4143 15.6884C36.3066 15.1664 36.191 14.6557 36.0998 14.1406C36.062 13.9268 35.9942 13.844 35.7576 13.847C34.5771 13.8623 33.3962 13.8586 32.2155 13.8491C32.0368 13.8477 31.9658 13.9073 31.9114 14.0715C31.7488 14.5623 31.5709 15.048 31.3889 15.5319C31.3642 15.5977 31.2823 15.6878 31.2263 15.6883C30.1621 15.6976 29.0978 15.6952 28.0029 15.6952C28.2024 15.2105 28.3914 14.7479 28.5832 14.2864C29.9554 10.985 31.328 7.68384 32.7006 4.38264C32.9979 3.66764 33.4435 3.36823 34.2101 3.36819C35.0645 3.36814 35.9188 3.36818 36.795 3.36818C36.8805 3.77066 36.9664 4.16727 37.0487 4.56466C37.7239 7.82717 38.3975 11.09 39.0744 14.3521C39.1611 14.77 39.2634 15.1846 39.3584 15.6007C39.3584 15.6299 39.3584 15.6592 39.3584 15.6884ZM35.5052 11.3103C35.1913 9.79332 34.8818 8.29662 34.5722 6.8C34.5597 6.79749 34.5469 6.79498 34.5344 6.79248C33.995 8.2929 33.4556 9.79332 32.9102 11.3103C33.791 11.3103 34.6344 11.3103 35.5052 11.3103Z" fill="black"/>
<path d="M26.5336 3.14893C26.922 3.22168 27.3136 3.28149 27.6983 3.37098C28.0493 3.45265 28.3931 3.56646 28.7662 3.67363C28.5781 4.56046 28.3945 5.42602 28.2149 6.27293C27.7227 6.12735 27.2522 5.95973 26.7686 5.85208C26.1071 5.70486 25.4293 5.64874 24.7676 5.8347C24.4986 5.91029 24.2263 6.05544 24.0145 6.23843C23.6513 6.55228 23.6464 7.0041 23.9934 7.33361C24.2326 7.56086 24.5162 7.74736 24.7995 7.91923C25.4437 8.30986 26.1201 8.64955 26.7461 9.06686C27.4834 9.55829 28.0212 10.2339 28.134 11.1475C28.3337 12.7632 27.7413 14.0359 26.3954 14.9363C25.5491 15.5024 24.5914 15.7553 23.5934 15.849C22.2 15.9797 20.8342 15.8223 19.5028 15.3812C19.4136 15.3517 19.3267 15.3148 19.2396 15.2789C19.2137 15.2681 19.1911 15.2491 19.1514 15.2242C19.3394 14.336 19.5277 13.4465 19.7214 12.5321C19.9483 12.632 20.1614 12.7321 20.3791 12.8206C21.4192 13.2433 22.4935 13.4366 23.6067 13.2262C23.8963 13.1715 24.1917 13.0426 24.4373 12.8766C24.97 12.5165 25.0211 11.8396 24.536 11.4167C24.2172 11.1386 23.834 10.9333 23.4706 10.71C22.9032 10.3615 22.3004 10.0644 21.7635 9.67438C21.0752 9.1743 20.5767 8.5076 20.4823 7.62141C20.3407 6.29456 20.829 5.21719 21.839 4.38006C22.7177 3.65168 23.761 3.32843 24.8726 3.19268C24.9343 3.18513 24.9944 3.16382 25.0553 3.14893C25.548 3.14893 26.0408 3.14893 26.5336 3.14893Z" fill="black"/>
<path d="M15.0841 3.37823C14.9187 3.77958 14.7621 4.16224 14.6034 4.54401C13.0882 8.1892 11.5711 11.8335 10.0619 15.4814C9.99011 15.6552 9.90208 15.7008 9.72739 15.6993C8.77101 15.6914 7.81447 15.6882 6.85825 15.7015C6.65551 15.7043 6.58949 15.6326 6.54281 15.4492C5.73202 12.2631 4.90768 9.08032 4.10616 5.89182C3.95904 5.30685 3.66472 4.90733 3.11253 4.66214C2.22749 4.26912 1.30876 3.99303 0.371643 3.76861C0.330209 3.75869 0.288936 3.74783 0.25 3.73802C0.254675 3.36823 0.254676 3.36821 0.603403 3.3682C2.27707 3.3682 3.95082 3.36782 5.62448 3.36837C6.41835 3.36863 6.99134 3.83366 7.14144 4.62604C7.56634 6.86922 7.98214 9.11411 8.40181 11.3583C8.42019 11.4564 8.44115 11.5541 8.46896 11.6922C8.51233 11.61 8.54263 11.5638 8.56238 11.5133C9.60196 8.86189 10.6418 6.21059 11.6759 3.55703C11.7325 3.41218 11.802 3.36304 11.9571 3.36428C12.9279 3.37204 13.8989 3.36804 14.8698 3.36858C14.9325 3.36861 14.9952 3.37408 15.0841 3.37823Z" fill="black"/>
<path d="M13.8174 15.6955C14.6918 11.5748 15.56 7.48312 16.4303 3.38135C17.489 3.38135 18.5353 3.38135 19.6015 3.38135C19.4696 4.00608 19.3405 4.61886 19.2106 5.23147C18.4922 8.61951 17.771 12.0069 17.0605 15.3965C17.0111 15.632 16.9284 15.7069 16.6859 15.7021C15.8169 15.6852 14.9472 15.6955 14.0778 15.6955C13.9999 15.6955 13.9219 15.6955 13.8174 15.6955Z" fill="black"/>
</svg>
